<mxfile host="app.diagrams.net" modified="2022-05-16T07:09:03.508Z" agent="5.0 (Windows)" etag="oS9QXDb_xsRjf64viE1-" version="15.8.2" type="github">
  <diagram id="N9-_FxJh8_Hrc3kbjZlo" name="Page-1">
    <mxGraphModel dx="944" dy="1153" grid="1" gridSize="10" guides="1" tooltips="1" connect="1" arrows="1" fold="1" page="1" pageScale="1" pageWidth="850" pageHeight="1100" math="0" shadow="0">
      <root>
        <mxCell id="0" />
        <mxCell id="1" parent="0" />
        <mxCell id="AskswSC3xO8kKQnKiT0t-21" value="" style="edgeStyle=orthogonalEdgeStyle;rounded=0;orthogonalLoop=1;jettySize=auto;html=1;" edge="1" parent="1" source="AskswSC3xO8kKQnKiT0t-4" target="AskswSC3xO8kKQnKiT0t-8">
          <mxGeometry relative="1" as="geometry" />
        </mxCell>
        <mxCell id="AskswSC3xO8kKQnKiT0t-23" value="" style="edgeStyle=orthogonalEdgeStyle;rounded=0;orthogonalLoop=1;jettySize=auto;html=1;" edge="1" parent="1" source="AskswSC3xO8kKQnKiT0t-4" target="AskswSC3xO8kKQnKiT0t-16">
          <mxGeometry relative="1" as="geometry">
            <Array as="points">
              <mxPoint x="250" y="1520" />
            </Array>
          </mxGeometry>
        </mxCell>
        <mxCell id="AskswSC3xO8kKQnKiT0t-4" value="Recommend class based on generated ability scores" style="rounded=1;whiteSpace=wrap;html=1;" vertex="1" parent="1">
          <mxGeometry x="390" y="1490" width="120" height="60" as="geometry" />
        </mxCell>
        <mxCell id="AskswSC3xO8kKQnKiT0t-14" value="" style="edgeStyle=orthogonalEdgeStyle;rounded=0;orthogonalLoop=1;jettySize=auto;html=1;" edge="1" parent="1" source="AskswSC3xO8kKQnKiT0t-6" target="AskswSC3xO8kKQnKiT0t-1">
          <mxGeometry relative="1" as="geometry" />
        </mxCell>
        <mxCell id="AskswSC3xO8kKQnKiT0t-6" value="Choose race" style="whiteSpace=wrap;html=1;rounded=1;" vertex="1" parent="1">
          <mxGeometry x="390" y="1120" width="120" height="60" as="geometry" />
        </mxCell>
        <mxCell id="AskswSC3xO8kKQnKiT0t-10" style="edgeStyle=orthogonalEdgeStyle;rounded=0;orthogonalLoop=1;jettySize=auto;html=1;exitX=1;exitY=1;exitDx=0;exitDy=0;entryX=1;entryY=1;entryDx=0;entryDy=0;" edge="1" parent="1" source="AskswSC3xO8kKQnKiT0t-8" target="AskswSC3xO8kKQnKiT0t-8">
          <mxGeometry relative="1" as="geometry">
            <mxPoint x="510" y="1860" as="targetPoint" />
            <Array as="points" />
          </mxGeometry>
        </mxCell>
        <mxCell id="AskswSC3xO8kKQnKiT0t-8" value="&lt;div&gt;Adjust ability scores if selected race has modifiers&lt;/div&gt;" style="whiteSpace=wrap;html=1;rounded=1;" vertex="1" parent="1">
          <mxGeometry x="390" y="1630" width="120" height="60" as="geometry" />
        </mxCell>
        <mxCell id="AskswSC3xO8kKQnKiT0t-22" value="" style="edgeStyle=orthogonalEdgeStyle;rounded=0;orthogonalLoop=1;jettySize=auto;html=1;" edge="1" parent="1" source="AskswSC3xO8kKQnKiT0t-1" target="AskswSC3xO8kKQnKiT0t-2">
          <mxGeometry relative="1" as="geometry" />
        </mxCell>
        <mxCell id="AskswSC3xO8kKQnKiT0t-1" value="Determine method of ability score generation&lt;span style=&quot;white-space: pre&quot;&gt;	&lt;/span&gt;" style="rounded=1;whiteSpace=wrap;html=1;" vertex="1" parent="1">
          <mxGeometry x="390" y="1230" width="120" height="60" as="geometry" />
        </mxCell>
        <mxCell id="AskswSC3xO8kKQnKiT0t-24" style="edgeStyle=orthogonalEdgeStyle;rounded=0;orthogonalLoop=1;jettySize=auto;html=1;entryX=0;entryY=0.5;entryDx=0;entryDy=0;" edge="1" parent="1" source="AskswSC3xO8kKQnKiT0t-16" target="AskswSC3xO8kKQnKiT0t-2">
          <mxGeometry relative="1" as="geometry">
            <Array as="points">
              <mxPoint x="250" y="1380" />
            </Array>
          </mxGeometry>
        </mxCell>
        <mxCell id="AskswSC3xO8kKQnKiT0t-16" value="If ability score total does not meet a minimum threshold recommend a reroll" style="rounded=1;whiteSpace=wrap;html=1;" vertex="1" parent="1">
          <mxGeometry x="190" y="1420" width="120" height="60" as="geometry" />
        </mxCell>
        <mxCell id="AskswSC3xO8kKQnKiT0t-20" value="" style="edgeStyle=orthogonalEdgeStyle;rounded=0;orthogonalLoop=1;jettySize=auto;html=1;" edge="1" parent="1" source="AskswSC3xO8kKQnKiT0t-2" target="AskswSC3xO8kKQnKiT0t-4">
          <mxGeometry relative="1" as="geometry" />
        </mxCell>
        <mxCell id="AskswSC3xO8kKQnKiT0t-2" value="Generate and assign ability scores " style="rounded=1;whiteSpace=wrap;html=1;" vertex="1" parent="1">
          <mxGeometry x="390" y="1350" width="120" height="60" as="geometry" />
        </mxCell>
      </root>
    </mxGraphModel>
  </diagram>
</mxfile>
